Patient4_TMGait_0pt4_02_right_42_EMG.mot
version=1
nRows=40
nColumns=33
inDegrees=no
endheader
time	1LAddLong	2LGlutMax	3LGlutMed	4LIliopsoas	5LSemiMemb	6LBicFemLong	7LRecFem	8LVastMed	9LVastLat	10LGasMed	11LTibAnt	12lTibPost	13LPeroneusLong	14LSol	15LExtDigLong	16LFlexDigLong	17RAddLong	18RGlutMax	19RGlutMed	20RIliopsoas	21RSemiMemb	22RBicFemLong	23RRecFem	24RVastMed	25RVastLat	26RGasMed	27RTibAnt	28RTibPost	29RPeroneusLong	30RSol	31RExtDigLong	32RFlexDigLong
56.26	0.007172	0.033417	-0.053711	-0.007477	0.072937	0.10834	-0.06012	0.01297	0.02655	0.028534	-0.011444	0.001678	0.065765	-0.06073	-0.010376	-0.001831	0.041962	0.08728	0.27634	0.004425	0.059662	0.092163	-0.25009	-0.024719	-0.016327	0.033875	0.018921	0.21622	0.055542	0.59479	0.000305	-0.024719
56.261	0.013275	-0.029755	-0.029755	-0.002289	-0.027618	0.13428	-0.12039	0.009613	0.048828	0.024567	-0.011139	0.005341	0.12009	-0.28488	-0.019531	0.001068	0.039215	0.020294	0.28366	-0.016327	0.046387	0.06485	-0.27496	0.013275	-0.027466	0.028229	0.00946	0.037842	0.069885	0.2298	-0.001373	-0.027008
56.262	0.02533	-0.013123	-0.025482	0.011444	-0.13092	0.0914	-0.18967	0.010529	0.13626	0.008392	-0.00885	0.006104	0.12405	-0.21347	0.011139	0.003662	0.03952	-0.024261	-0.10696	-0.023041	0.001984	0.09613	-0.27924	-0.084229	-0.049744	0.023499	0.007477	-0.00412	0.041656	-0.40436	-0.000305	-0.038757
56.263	0.025482	0.020599	-0.032501	0.003967	-0.16205	0.080872	-0.18951	0.006104	0.067291	0	-0.00412	0.004578	0.063171	-0.090485	0.016937	-0.007782	0.034485	-0.014496	-0.18036	-0.062714	-0.054626	0.072021	-0.30548	-0.10071	-0.03479	0.020294	0.013275	-0.000916	0.034027	-0.3186	0.001221	-0.033264
56.264	0.027618	-0.050049	-0.024872	0.001984	-0.11856	0.036621	-0.18768	-0.001068	-0.089264	-0.009613	-0.001984	0.005646	0.095673	-0.006104	0.016479	0.00061	0.012207	0.010376	0.28442	-0.045929	-0.045776	0.057068	-0.32516	0.020752	-0.014648	0.007782	0.041199	-0.29663	-0.069427	0.26794	-0.001221	-0.036621
56.265	0.009003	-0.066986	-0.049896	-0.006561	0.078735	-0.052643	-0.17471	0.014648	-0.18219	-0.003967	0.004425	0.013885	-0.091095	0.077209	0.020599	-0.000305	0.003357	0.020447	0.25482	0.002594	0.032501	-0.01236	-0.31738	0.035858	-0.013428	-0.009766	0.035858	0.035553	-0.1297	0.019989	-0.001526	-0.028992
56.266	-0.009918	-0.046844	-0.042267	-0.004272	0.10391	-0.11383	-0.13351	0.008087	-0.14938	-0.017548	0.00412	0.019379	-0.16892	0.076904	0.040741	0.015259	-0.004425	0.006104	0.030365	0.086212	0.070953	-0.028229	-0.32059	0.033417	-0.027618	-0.016479	0.022278	0.13641	-0.095215	0.010986	0.001221	-0.024872
56.267	-0.017548	-0.077362	-0.037231	-0.006409	-0.006714	-0.093536	-0.12375	0.014191	-0.030823	0.00351	-0.008545	0.021667	0.069122	0.038757	0.007935	-0.018616	0.007172	-0.002747	0.072632	0.031281	0.073242	-0.058289	-0.32974	0.045471	-0.03952	-0.022583	0.00412	0.03479	-0.053864	0.44784	0.001831	-0.027008
56.268	-0.009155	-0.025787	-0.03006	0.011749	-0.069427	-0.071411	-0.078278	0.010529	0.038757	0.017548	-0.000916	0.026398	0.021057	0.11047	-0.006866	-0.022583	0.032501	-0.022278	0.029449	-0.094452	0.087128	-0.103	-0.32455	0.037689	-0.029907	-0.020752	0.001221	0.012512	-0.01236	0.44144	-0.000305	-0.029907
56.269	0.020905	0.03067	-0.030975	-0.007324	0.001831	0.023346	-0.045013	0.002747	0.074005	-0.004272	-0.007477	0.032043	-0.16235	0.23468	-0.000916	-0.012207	0.044556	-0.05661	-0.15793	-0.11063	0.058441	-0.16571	-0.33829	0.032501	-0.028076	-0.016327	0.006714	0.005646	0.06134	0.077362	-0.001373	-0.03067
56.27	0.029602	-0.022278	-0.035858	0.015717	0.093231	0.065308	0.018158	-0.00885	0.094147	-0.027313	-0.003357	0.031891	-0.15305	0.19058	0.018616	-0.025177	0.040894	-0.11597	-0.12894	-0.056	-0.09903	-0.084534	-0.32883	0.031281	-0.016785	-0.007935	-0.002136	-0.055847	0.1004	-0.19379	0.00061	-0.036774
56.271	0.011444	0.010223	-0.019379	-0.000458	0.087433	0.097046	0.066528	-0.003204	0.06012	-0.030823	-0.014038	0.054016	-0.016632	0.097656	0.019226	-0.014191	0.049133	-0.14862	-0.088348	0.14191	-0.14252	-0.0177	-0.33737	0.001373	-0.0383	0.003357	0.014038	0.017242	0.076447	0.18341	-0.00473	-0.03418
56.272	-0.00061	-0.00885	-0.001984	-0.00412	0.088501	0.13443	0.11795	0.005798	0.07782	-0.036316	-0.004425	0.072174	-0.11322	0.075684	0.031738	-0.016785	0.068817	-0.10269	-0.067291	0.2684	-0.092773	-0.11139	-0.35873	0.014191	-0.010223	0.012207	0.039063	0.006561	-0.10101	0.47714	-0.00061	-0.027924
56.273	0.00351	0.073853	-0.006104	-0.006866	0.1062	0.12634	0.046539	0	0.073853	-0.012512	-0.002594	0.076447	0.041962	0.046234	0.010071	-0.011292	0.045929	-0.012512	-0.11536	0.10437	-0.18616	-0.1355	-0.38345	0.019989	0.008545	0.021362	0.031891	-0.005951	-0.16098	0.28625	-0.007019	-0.029297
56.274	0.00946	0.044403	-0.000458	-0.005798	0.069275	0.026703	-0.005035	-0.001068	0.11414	0.000916	-0.001221	0.092773	0.022125	0.066223	0.013733	0.005188	0.005951	-0.16144	-0.08667	-0.059204	-0.28015	-0.005188	-0.34882	0.072632	-0.005798	0.025024	0.011292	-0.023956	-0.10178	0.12924	-0.002747	-0.030518
56.275	0.006561	0.11322	0.005188	0.001526	0.023193	-0.062103	0.013275	0.003052	0.10727	0.007019	0.002747	0.10315	0.030823	0.066681	0.024872	0.005646	-0.014343	-0.15671	-0.019989	-0.070038	-0.085449	0.092621	-0.38467	0.026093	-0.027161	0.02533	-0.001831	-0.035095	-0.13199	-0.005035	0.001373	-0.028992
56.276	0.003662	0.16174	-0.006866	-0.014954	0.021362	-0.096283	0.013123	0.004578	-0.019531	0.005646	-0.005951	0.097809	0.049133	0.033569	0.029297	0.015259	0.001068	-0.18204	-0.041046	0.01709	0.13534	0.090485	-0.33081	0.02182	-0.028534	0.030823	-0.005646	-0.02182	-0.063324	-0.18372	-0.003357	-0.028229
56.277	0.012207	0.16037	-0.00351	-0.005188	0.042114	-0.049133	-0.047913	0.009613	-0.1413	0.004272	0.001221	0.10483	0.010986	0.021515	0.022278	0.02655	0.010986	-0.11566	0.018616	0.004425	0.10529	-0.022278	-0.32837	0.016327	-0.027161	0.013733	0.04364	-0.016327	0.014038	-0.28259	-0.000916	-0.027771
56.278	-0.001678	0.15854	0.00946	-0.001373	0.041504	-0.034485	-0.05249	0.014801	-0.10666	0.007782	-0.00061	0.0914	0.012207	0.016022	0.016479	0.03006	0.00946	-0.11032	0.054932	0.054016	0.13596	-0.005493	-0.37994	0.004883	-0.029602	-0.018158	0.021057	-0.017548	-0.03006	-0.24658	0.002899	-0.028229
56.279	-0.002747	0.12344	0.010376	-0.020447	-0.009613	-0.003052	-0.028381	0.023956	0.079041	-0.001526	0.007172	0.072021	-0.16281	0.052338	0.013733	0.040588	-0.001068	-0.065308	0.055237	0.11276	0.1442	0.045319	-0.39688	0.071106	0.003815	-0.003052	-0.002747	-0.002747	-0.037079	-0.082855	0.001984	-0.022278
56.28	-0.008392	0.12985	0.00824	-0.015717	-0.007935	0.12146	-0.058899	0.020752	0.18494	0.031891	0.017853	0.055084	-0.15442	0.048065	0.021515	0.059967	-0.001984	-0.15305	0.012665	0.092926	0.10346	0.08606	-0.4155	0.012817	-0.005646	0.010223	0.018921	0.025024	0.019379	0.13794	0.002594	-0.024109
56.281	-0.015564	0.12787	-0.007782	0.000763	0.007935	-0.008392	-0.069427	0.026093	0.23972	0.022888	0.003967	0.044098	0.46127	0.071106	0.031433	0.052338	0.010681	-0.14358	0.065308	0.050812	-0.06012	0.093231	-0.30701	-0.076904	-0.02243	-0.015869	0.039825	0.045776	0.22888	0.073242	0.002594	-0.023956
56.282	-0.007629	0.14145	0.013123	-0.001526	0.028381	0.029144	-0.15869	0.021667	0.28183	-0.009308	-0.014343	0.026398	0.67749	0.121	0.030212	0.0354	0.016022	-0.12543	-0.058136	0.009155	0.001984	0.057068	-0.31937	-0.059357	-0.039825	-0.016479	0.024719	0.042572	0.3656	0.121	0.001373	-0.020294
56.283	0.001221	0.21698	0.033722	0.007172	0.047302	0.10666	-0.19486	0.018311	0.25482	-0.004578	-0.000763	0.018616	0.25726	0.13931	0.002747	0.03891	-0.007477	-0.14908	-0.040741	-0.007629	0.033569	0.053101	-0.3331	-0.018616	-0.012512	0.026855	0.061951	-0.36591	0.12421	0.29999	-0.001373	-0.010223
56.284	-0.013275	0.22369	0.037994	-0.014038	0.048981	0.12054	-0.1593	-0.002899	0.20401	-0.000305	0.015717	0.005951	0.15366	0.18692	0.035858	0.009918	-0.026855	-0.10773	-0.003815	-0.029144	0.03067	0.097656	-0.34103	0.010223	-0.010834	0.070496	0.069275	0.02655	0.086975	0.23102	-0.007935	-0.012054
56.285	-0.039368	0.19409	0.02121	0.007935	-0.028076	0.061493	-0.10284	-0.000458	0.099182	-0.018768	0.017242	-0.005493	-0.15121	0.33157	0.053711	0.002747	-0.047607	-0.1532	0.028076	-0.02594	0.064545	0.070038	-0.34668	0.042572	-0.016479	0.036621	0.063171	0.1207	-0.02533	-0.29068	-0.00412	-0.011749
56.286	-0.048218	0.21774	0.022888	-0.000458	-0.14893	-0.011444	-0.03952	0.014038	-0.10468	0.002441	0.021973	-0.011139	-0.31235	0.29938	0.004883	-0.004578	-0.03891	-0.20706	-0.033875	-0.027466	0.12238	0.053711	-0.37811	-0.007629	-0.022888	-0.004578	0.041809	-0.025787	0.022736	-0.68039	-0.001984	-0.014496
56.287	-0.028381	0.25345	0.014191	-0.015106	-0.23941	-0.14648	-0.063934	0.019073	-0.32959	0.024414	0.020294	-0.01709	-0.20538	0.18875	-0.10254	-0.014801	0.019226	-0.19363	-0.058441	-0.029602	0.13153	-0.031891	-0.3627	-0.008698	-0.034637	-0.095215	-0.022125	-0.096436	-0.085449	-0.73624	-0.002136	-0.014343
56.288	0.010529	0.19928	0.007782	0.005341	-0.19333	-0.31387	-0.062714	0.016937	-0.37262	0.014648	-0.008392	-0.02243	-0.1648	0.11292	-0.13382	-0.00351	0.054474	-0.19867	-0.034332	-0.025787	0.11124	-0.11108	-0.36972	-0.027618	-0.019684	-0.10544	-0.046844	0.061493	-0.12726	-0.58395	-0.001373	-0.015259
56.289	0.040436	0.12955	0.007782	-0.012207	-0.12253	-0.34042	-0.084686	0	-0.24597	-0.043182	-0.022888	-0.019226	-0.25681	0.14633	-0.10147	-0.013123	0.064087	-0.21027	-0.00473	-0.052795	0.0737	-0.076599	-0.37567	-0.013123	-0.024567	-0.10223	0.011749	0.11261	-0.18143	-0.37155	0.000153	-0.016174
56.29	0.051575	0.091553	-0.000305	-0.008087	0.10284	-0.11231	-0.073242	0.003204	-0.18036	-0.072327	-0.003204	-0.015717	-0.345	0.15869	-0.050964	-0.021667	0.032806	-0.2214	0.008087	-0.075226	0.072327	-0.103	-0.35599	0.027161	-0.008545	-0.054016	0.066986	-0.23529	-0.16815	-0.40649	-0.002441	-0.018921
56.291	0.036774	0.073547	-0.017548	0.027924	0.12039	0.060272	-0.11185	0.001221	-0.092468	-0.08255	0.027008	-0.017853	-0.096893	0.14023	0.023956	-0.020142	0.032806	-0.215	-0.0383	-0.16327	0.03952	-0.1152	-0.35965	0.019226	-0.006104	-0.055847	-0.006714	-0.59677	0.001678	0.11993	-0.002136	-0.013428
56.292	0.032349	0.1062	-0.095673	0.011749	0.079803	0.063934	-0.10208	0.004425	0.003967	-0.10956	0.026855	-0.011444	-0.10101	0.058136	0.034027	-0.013885	0.037079	-0.24231	-0.039063	-0.15808	-0.041656	-0.16266	-0.39337	0.050507	-0.006256	0.016632	-0.007019	0.28305	-0.018005	0.61844	-0.00061	-0.025635
56.293	0.031128	0.098419	-0.029602	0.013123	0.061951	0.10895	-0.11231	0.006256	0.018616	-0.09491	0.020447	-0.003662	-0.18402	0.037384	0.018921	-0.024261	0.023499	-0.2388	0.18768	-0.12116	-0.087891	-0.13367	-0.38513	-0.020752	-0.007935	0.084991	-0.029144	0.35233	0.21439	0.36835	0.002289	-0.020905
56.294	0.02655	0.09903	0.041351	-0.005188	0.023193	0.063782	-0.14221	-0.001221	-0.045776	-0.096588	-0.003204	0.002441	-0.02121	0.032196	0.008087	-0.024414	0.000916	-0.20844	0.016937	0.094757	-0.095978	-0.054016	-0.36758	0.002441	-0.007477	0.046844	-0.057831	0.13672	0.39902	0.2858	-0.003815	-0.024109
56.295	0.024719	0.095673	0.092926	-0.012665	0.021667	0.028229	-0.16449	-0.002747	-0.080566	-0.08194	-0.009155	0.007477	0.21149	0.009155	-0.031281	-0.00824	-0.032959	-0.30289	-0.13062	0.20187	-0.019684	0.11932	-0.35095	0.024261	0.008087	-0.035858	-0.018768	0.091095	0.1712	0.29083	0.001068	-0.027466
56.296	0.014801	0.055389	0.077209	-0.013428	0.026855	0.027618	-0.26077	0.023804	-0.050507	-0.092316	0.007019	0.017853	-0.016022	-0.007477	-0.014954	-0.027618	-0.050354	-0.327	-0.21423	0.12787	0.069427	0.13611	-0.42007	0.02594	0.029144	-0.04303	0.005646	0.088959	0.032349	0.21683	0	-0.018158
56.297	0.006256	0.016327	0.053864	-0.026855	-0.00885	0.056305	-0.14954	0.020142	-0.036774	-0.10559	0.008087	0.0177	0.005493	0.024109	-0.002289	-0.041962	-0.035553	-0.36606	-0.099945	0.033569	0.059052	0.06424	-0.38391	-0.018768	0.012207	-0.057983	-0.006561	0.028076	0.019684	0.027466	0.005798	-0.019684
56.298	-0.022583	0.041656	0.071564	-0.026398	-0.043335	0.09964	-0.18997	0.009613	-0.09201	-0.096741	0.002441	0.035858	-0.079956	0.12512	0.029602	-0.06134	-0.011597	-0.39887	0.48599	-0.03479	0.062561	0.036163	-0.39246	-0.045929	-0.001373	-0.05249	-0.008698	-0.026855	0.22201	0.35507	0.001984	-0.009918
56.299	-0.038757	0.031281	0.022125	0.000458	-0.075531	0.17181	-0.25848	-0.015106	-0.042572	-0.085449	0.01236	0.038605	-0.11658	-0.008087	0.027161	-0.054779	0.015869	-0.42877	0.70328	-0.031891	0.055237	-0.040283	-0.37293	-0.058594	0.003204	-0.010681	-0.012512	0.03418	0.19623	0.53116	0.000763	-0.011292
